# xmcd
#
# Track frame offsets:
#	150
#	13012
#	25917
#	38676
#	51986
#	66997
#	79532
#	92169
#	103030
#	118241
#	133375
#	145779
#	158079
#	172659
#	185896
#	199622
#	213647
#	228287
#
# Disc length: 3232 seconds
# Revision: 0
# Processed by: cddbd v1.5.2PL0 Copyright (c) Steve Scherf et al.
# Submitted via: dBpowerAMP V12.0
#
DISCID=fc0c9e12
DTITLE=Various Artist - Reefer Blues Vintage Songs About Marijuana Volume 2
DYEAR=1939
DGENRE=Blues
TTITLE0=The Cats and The Fiddle - Killin' Jive
TTITLE1=Baron Lee and The Blue Rhythm Band - Reefer Man
TTITLE2=Cab Calloway and His Orchestra - Are You Hep To The Jive
TTITLE3=Fats Waller - Viper's Drag (Instrumental)
TTITLE4=The Harlem Hamfats - Weed Smokers Dream (Why Don't You Do Now)
TTITLE5=McKinney's Cotton Pickers - Selling That Stuff
TTITLE6=Blue Steele and His Orchestra - All Muggled Up
TTITLE7=Bob Howard and His Boys - If You're A Viper (The Reefer Song)
TTITLE8=Benny Goodman and His Orchestra - Texas Tea Party
TTITLE9=Julia Lee and Her Boy Friends - Lotus Blossom
TTITLE10=Cleo Brown - The Stuff Is Here And It's Mellow
TTITLE11=Gene Krupa and His Orchestra - Feelin' High And Happy
TTITLE12=Django Reinhardt and The Quintette Of The Hot Club Of France - Viper's Dream (Instrumental)
TTITLE13=Mezz Mezzrow and His Orchestra - Sendin' The Vipers (Instrumental)
TTITLE14=Lucille Bogan (Originally Released As Bessie Jackson) - Pot Hound Blues
TTITLE15=Larry Adler - Smoking Reefers
TTITLE16=Jimmie Lunceford and His Orchestra - My Blue Heaven
TTITLE17=Cee Pee Johnson And Band - The G Man Got The T Man
EXTD=
EXTT0=
EXTT1=
EXTT2=
EXTT3=
EXTT4=
EXTT5=
EXTT6=
EXTT7=
EXTT8=
EXTT9=
EXTT10=
EXTT11=
EXTT12=
EXTT13=
EXTT14=
EXTT15=
EXTT16=
EXTT17=
PLAYORDER=
